<svg width="259" height="65" viewBox="0 0 259 65" fill="none" xmlns="http://www.w3.org/2000/svg">
<path d="M160.095 19.1552C159.138 19.1552 158.271 18.9618 157.488 18.5769C156.705 18.1919 156.085 17.6116 155.627 16.8398C155.168 16.068 154.938 15.0833 154.938 13.8874V5.85088H157.451V13.905C157.451 14.5538 157.56 15.0989 157.776 15.5405C157.992 15.9821 158.303 16.3103 158.706 16.5213C159.11 16.7343 159.591 16.8398 160.149 16.8398C160.708 16.8398 161.206 16.7343 161.611 16.5213C162.014 16.3103 162.322 15.9821 162.531 15.5405C162.742 15.0989 162.849 14.5538 162.849 13.905V5.85088H165.362V13.8855C165.362 15.0813 165.127 16.066 164.655 16.8378C164.184 17.6096 163.547 18.19 162.747 18.5749C161.948 18.9618 161.062 19.1532 160.095 19.1532" fill="#0D45FF"/>
<path d="M167.447 18.9305V9.51264H169.663L169.831 11.0641C170.128 10.517 170.54 10.0832 171.069 9.76469C171.596 9.44619 172.224 9.28793 172.958 9.28793C173.741 9.28793 174.396 9.45206 174.932 9.78227C175.466 10.1125 175.874 10.5892 176.16 11.2126C176.444 11.8359 176.588 12.5959 176.588 13.4928V18.9305H174.076V13.7175C174.076 12.9828 173.914 12.4162 173.591 12.0176C173.267 11.619 172.777 11.4197 172.12 11.4197C171.71 11.4197 171.341 11.5193 171.012 11.7186C170.683 11.9179 170.426 12.2012 170.239 12.5686C170.053 12.9359 169.958 13.3873 169.958 13.9227V18.9305H167.447Z" fill="#0D45FF"/>
<path d="M179.959 8.2248C179.499 8.2248 179.127 8.09194 178.842 7.8223C178.555 7.5546 178.414 7.21462 178.414 6.80429C178.414 6.39397 178.555 6.05397 178.842 5.78629C179.127 5.5186 179.499 5.38378 179.959 5.38378C180.419 5.38378 180.793 5.51665 181.086 5.78629C181.378 6.05397 181.524 6.39397 181.524 6.80429C181.524 7.21462 181.378 7.5546 181.086 7.8223C180.793 8.08999 180.419 8.2248 179.959 8.2248ZM178.693 9.51245H181.207V18.9304H178.693V9.51245Z" fill="#0D45FF"/>
<path d="M185.952 18.9305L182.509 9.51251H185.153L187.498 16.5585L189.824 9.51251H192.431L189.006 18.9305H185.952Z" fill="#0D45FF"/>
<path d="M197.738 19.1554C196.793 19.1554 195.961 18.9502 195.235 18.5379C194.508 18.1255 193.944 17.5569 193.54 16.8282C193.138 16.0994 192.936 15.2612 192.936 14.3154C192.936 13.3697 193.138 12.465 193.54 11.7186C193.944 10.9703 194.507 10.3802 195.225 9.9425C195.945 9.50677 196.782 9.28793 197.738 9.28793C198.694 9.28793 199.482 9.49309 200.177 9.90538C200.871 10.3157 201.411 10.8667 201.797 11.5584C202.182 12.2501 202.375 13.0434 202.375 13.9403C202.375 14.0653 202.37 14.206 202.365 14.3603C202.359 14.5166 202.349 14.6749 202.338 14.8371H194.741V13.2857H199.843C199.804 12.6995 199.591 12.2267 199.2 11.8652C198.808 11.5037 198.328 11.3239 197.757 11.3239C197.323 11.3239 196.927 11.4275 196.576 11.6327C196.221 11.8378 195.94 12.1368 195.729 12.5295C195.517 12.9223 195.411 13.4166 195.411 14.0145V14.5558C195.411 15.0657 195.507 15.5113 195.699 15.8922C195.893 16.2733 196.162 16.5684 196.509 16.7793C196.855 16.9903 197.261 17.0958 197.72 17.0958C198.179 17.0958 198.572 17.0002 198.865 16.8067C199.157 16.6133 199.383 16.3553 199.544 16.031H202.095C201.932 16.6171 201.644 17.1486 201.227 17.6293C200.812 18.108 200.309 18.4832 199.72 18.7508C199.129 19.0186 198.469 19.1534 197.738 19.1534" fill="#0D45FF"/>
<path d="M204.135 18.9304V9.51241H206.369L206.594 11.2319C206.829 10.8333 207.117 10.4874 207.46 10.1943C207.801 9.90124 208.192 9.67653 208.633 9.52217C209.074 9.36586 209.561 9.28966 210.095 9.28966V11.9607H209.239C208.868 11.9607 208.523 12.0017 208.205 12.0818C207.89 12.1619 207.611 12.3065 207.375 12.5117C207.141 12.7169 206.96 12.9846 206.837 13.3148C206.713 13.645 206.65 14.0651 206.65 14.577V18.9304H204.137H204.135Z" fill="#0D45FF"/>
<path d="M215.289 19.1551C214.421 19.1551 213.672 19.0183 213.046 18.7447C212.42 18.4712 211.927 18.0942 211.567 17.6134C211.208 17.1347 211.003 16.5818 210.952 15.9603H213.466C213.514 16.1851 213.615 16.3961 213.762 16.5955C213.912 16.7947 214.109 16.951 214.359 17.0624C214.606 17.1738 214.904 17.2305 215.252 17.2305C215.601 17.2305 215.864 17.1836 216.081 17.0898C216.297 16.9959 216.459 16.8689 216.566 16.7068C216.67 16.5446 216.724 16.3766 216.724 16.2027C216.724 15.9408 216.645 15.7416 216.49 15.6048C216.334 15.468 216.114 15.3488 215.828 15.2491C215.541 15.1495 215.195 15.0616 214.787 14.9873C214.339 14.8994 213.902 14.7919 213.474 14.661C213.046 14.5302 212.665 14.362 212.33 14.1569C211.995 13.9518 211.729 13.6958 211.53 13.391C211.332 13.0862 211.232 12.7032 211.232 12.2421C211.232 11.695 211.383 11.1947 211.678 10.7473C211.976 10.2979 212.414 9.94422 212.99 9.6824C213.566 9.42058 214.246 9.28966 215.029 9.28966C216.169 9.28966 217.07 9.54562 217.727 10.0556C218.386 10.5675 218.777 11.2709 218.9 12.1678H216.536C216.463 11.8689 216.297 11.6383 216.042 11.4761C215.787 11.3139 215.448 11.2338 215.029 11.2338C214.607 11.2338 214.256 11.3159 214.014 11.4761C213.772 11.6383 213.652 11.8435 213.652 12.0936C213.652 12.2674 213.73 12.4238 213.884 12.5605C214.039 12.6973 214.26 12.8165 214.545 12.9162C214.829 13.0158 215.178 13.1096 215.587 13.1956C216.307 13.346 216.939 13.516 217.484 13.7095C218.031 13.9029 218.459 14.1765 218.769 14.532C219.078 14.8877 219.235 15.4016 219.235 16.0738C219.235 16.6717 219.073 17.2051 218.75 17.6721C218.427 18.1391 217.972 18.5044 217.381 18.7642C216.792 19.0261 216.095 19.1571 215.287 19.1571" fill="#0D45FF"/>
<path d="M222.383 8.2248C221.924 8.2248 221.552 8.09194 221.266 7.8223C220.98 7.5546 220.837 7.21462 220.837 6.80429C220.837 6.39397 220.98 6.05397 221.266 5.78629C221.55 5.5186 221.924 5.38378 222.383 5.38378C222.843 5.38378 223.218 5.51665 223.511 5.78629C223.802 6.05397 223.949 6.39397 223.949 6.80429C223.949 7.21462 223.802 7.5546 223.511 7.8223C223.218 8.08999 222.843 8.2248 222.383 8.2248ZM221.119 9.51245H223.631V18.9304H221.119V9.51245Z" fill="#0D45FF"/>
<path d="M230.035 19.1552C229.179 19.1552 228.411 18.9441 227.736 18.5202C227.061 18.0961 226.529 17.5118 226.145 16.7635C225.759 16.0152 225.568 15.175 225.568 14.2411C225.568 13.307 225.761 12.4317 226.145 11.6911C226.529 10.9506 227.069 10.3644 227.764 9.93454C228.458 9.50468 229.235 9.28974 230.09 9.28974C230.773 9.28974 231.365 9.4148 231.868 9.66294C232.369 9.91305 232.776 10.2667 233.087 10.7278V5.47761H235.601V18.9324H233.366L233.087 17.6233C232.889 17.9105 232.649 18.1685 232.371 18.399C232.092 18.6296 231.765 18.8133 231.384 18.95C231.007 19.0868 230.555 19.1552 230.035 19.1552ZM230.631 16.9512C231.139 16.9512 231.581 16.8358 231.952 16.6052C232.324 16.3748 232.617 16.0543 232.827 15.6439C233.038 15.2336 233.144 14.7529 233.144 14.2059C233.144 13.6587 233.039 13.1976 232.827 12.7853C232.617 12.375 232.321 12.0565 231.943 11.8318C231.565 11.6071 231.122 11.4957 230.612 11.4957C230.141 11.4957 229.714 11.611 229.337 11.8416C228.957 12.0722 228.663 12.3926 228.452 12.8029C228.243 13.2132 228.136 13.6802 228.136 14.2039C228.136 14.7276 228.24 15.2278 228.452 15.6342C228.663 16.0386 228.96 16.3591 229.337 16.5955C229.714 16.8319 230.147 16.9512 230.631 16.9512Z" fill="#0D45FF"/>
<path d="M240.923 19.1552C240.154 19.1552 239.514 19.0282 239.007 18.7723C238.498 18.5162 238.115 18.1743 237.861 17.7444C237.606 17.3146 237.479 16.8378 237.479 16.3142C237.479 15.728 237.626 15.2181 237.917 14.7823C238.21 14.3466 238.653 14.0066 239.25 13.7643C239.844 13.522 240.602 13.4009 241.52 13.4009H243.809C243.809 12.928 243.752 12.5411 243.633 12.2422C243.514 11.9432 243.323 11.7185 243.056 11.57C242.791 11.4196 242.44 11.3453 242.005 11.3453C241.534 11.3453 241.133 11.445 240.804 11.6443C240.476 11.8436 240.273 12.1621 240.199 12.5978H237.76C237.822 11.912 238.043 11.3277 238.422 10.8412C238.799 10.3547 239.303 9.97561 239.931 9.70206C240.557 9.42851 241.255 9.29173 242.025 9.29173C242.907 9.29173 243.672 9.43827 244.324 9.73137C244.977 10.0245 245.473 10.4543 245.813 11.021C246.154 11.5876 246.325 12.2754 246.325 13.0863V18.9344H244.221L243.941 17.4963C243.804 17.7464 243.638 17.9691 243.448 18.1685C243.256 18.3677 243.031 18.5417 242.778 18.6922C242.524 18.8407 242.249 18.9558 241.948 19.0379C241.652 19.1181 241.311 19.1592 240.925 19.1592M241.539 17.211C241.848 17.211 242.129 17.1524 242.385 17.0333C242.639 16.914 242.86 16.7499 243.046 16.5388C243.234 16.3279 243.381 16.0895 243.493 15.8296C243.603 15.5678 243.679 15.2825 243.716 14.9699V14.9503H241.799C241.402 14.9503 241.082 14.9972 240.842 15.091C240.6 15.1849 240.422 15.3177 240.312 15.4935C240.201 15.6674 240.144 15.8668 240.144 16.0915C240.144 16.3279 240.201 16.5311 240.312 16.6991C240.422 16.8671 240.588 16.9941 240.804 17.0821C241.02 17.17 241.267 17.213 241.54 17.213" fill="#0D45FF"/>
<path d="M252.539 19.1552C251.683 19.1552 250.916 18.9441 250.24 18.5202C249.565 18.0961 249.033 17.5118 248.648 16.7635C248.263 16.0152 248.073 15.175 248.073 14.2411C248.073 13.307 248.265 12.4317 248.648 11.6911C249.033 10.9506 249.573 10.3644 250.267 9.93454C250.962 9.50468 251.739 9.28974 252.594 9.28974C253.277 9.28974 253.869 9.4148 254.37 9.66294C254.873 9.91305 255.28 10.2667 255.591 10.7278V5.47761H258.105V18.9324H255.87L255.591 17.6233C255.393 17.9105 255.153 18.1685 254.875 18.399C254.597 18.6296 254.267 18.8133 253.889 18.95C253.511 19.0868 253.059 19.1552 252.539 19.1552ZM253.135 16.9512C253.643 16.9512 254.085 16.8358 254.457 16.6052C254.828 16.3748 255.121 16.0543 255.331 15.6439C255.54 15.2336 255.648 14.7529 255.648 14.2059C255.648 13.6587 255.543 13.1976 255.331 12.7853C255.121 12.375 254.824 12.0565 254.447 11.8318C254.069 11.6071 253.626 11.4957 253.116 11.4957C252.644 11.4957 252.218 11.611 251.841 11.8416C251.461 12.0722 251.167 12.3926 250.957 12.8029C250.746 13.2132 250.64 13.6802 250.64 14.2039C250.64 14.7276 250.745 15.2278 250.957 15.6342C251.167 16.0386 251.462 16.3591 251.841 16.5955C252.218 16.8319 252.651 16.9512 253.135 16.9512Z" fill="#0D45FF"/>
<path d="M158.084 38.9056V27.862H154.287V25.8261H164.395V27.862H160.598V38.9056H158.084Z" fill="#0D45FF"/>
<path d="M168.638 39.1304C167.694 39.1304 166.861 38.9253 166.134 38.5129C165.408 38.1027 164.844 37.5321 164.442 36.8033C164.039 36.0744 163.835 35.2362 163.835 34.2905C163.835 33.3449 164.039 32.4401 164.442 31.6937C164.844 30.9454 165.407 30.3553 166.125 29.9177C166.845 29.4819 167.682 29.263 168.638 29.263C169.594 29.263 170.382 29.4682 171.077 29.8805C171.773 30.2908 172.311 30.8418 172.697 31.5335C173.082 32.2252 173.275 33.0184 173.275 33.9153C173.275 34.0404 173.27 34.1811 173.265 34.3354C173.259 34.4918 173.249 34.6501 173.238 34.8122H165.643V33.2608H170.742C170.706 32.6747 170.491 32.2017 170.099 31.8403C169.708 31.4788 169.228 31.2991 168.658 31.2991C168.223 31.2991 167.829 31.4026 167.475 31.6078C167.122 31.813 166.84 32.1118 166.629 32.5047C166.417 32.8973 166.313 33.3918 166.313 33.9896V34.5308C166.313 35.0408 166.407 35.4863 166.599 35.8673C166.793 36.2484 167.061 36.5434 167.41 36.7544C167.757 36.9655 168.161 37.0709 168.62 37.0709C169.079 37.0709 169.473 36.9752 169.765 36.7818C170.057 36.5884 170.283 36.3305 170.444 36.006H172.995C172.832 36.5923 172.545 37.1238 172.129 37.6043C171.712 38.0831 171.21 38.4582 170.619 38.726C170.03 38.9936 169.37 39.1284 168.638 39.1284" fill="#0D45FF"/>
<path d="M179.588 39.1301C178.643 39.1301 177.806 38.9192 177.074 38.4951C176.342 38.0712 175.77 37.4928 175.362 36.7581C174.953 36.0234 174.748 35.1892 174.748 34.2532C174.748 33.2567 174.953 32.3871 175.362 31.6467C175.77 30.9061 176.342 30.3238 177.074 29.8999C177.806 29.4758 178.643 29.2647 179.588 29.2647C180.79 29.2647 181.802 29.5794 182.622 30.2085C183.441 30.8377 183.963 31.7071 184.185 32.8151H181.522C181.411 32.3911 181.182 32.0531 180.833 31.797C180.485 31.5411 180.064 31.4141 179.568 31.4141C179.134 31.4141 178.746 31.5254 178.404 31.7502C178.063 31.9749 177.796 32.2914 177.604 32.7038C177.41 33.114 177.316 33.6122 177.316 34.1985C177.316 34.6224 177.372 35.0074 177.483 35.3572C177.594 35.7069 177.75 35.998 177.949 36.2344C178.147 36.4709 178.383 36.6545 178.655 36.7855C178.928 36.9163 179.233 36.9809 179.568 36.9809C179.903 36.9809 180.186 36.9242 180.451 36.8129C180.718 36.7014 180.944 36.5393 181.131 36.3262C181.318 36.1153 181.449 35.8652 181.522 35.5779H184.185C183.961 36.6487 183.437 37.5084 182.612 38.1571C181.787 38.8058 180.779 39.1283 179.588 39.1283" fill="#0D45FF"/>
<path d="M186.044 38.9058V29.4877H188.258L188.426 31.0392C188.723 30.4921 189.136 30.0583 189.664 29.7398C190.191 29.4213 190.82 29.263 191.554 29.263C192.336 29.263 192.992 29.4292 193.528 29.7574C194.062 30.0877 194.47 30.5644 194.757 31.1877C195.041 31.811 195.185 32.5711 195.185 33.4679V38.9058H192.671V33.6926C192.671 32.958 192.51 32.3913 192.187 31.9927C191.863 31.5941 191.373 31.3947 190.716 31.3947C190.306 31.3947 189.937 31.4945 189.608 31.6937C189.279 31.8931 189.021 32.1764 188.835 32.5437C188.648 32.9111 188.555 33.3624 188.555 33.8978V38.9058H186.041H186.044Z" fill="#0D45FF"/>
<path d="M201.684 39.1303C200.778 39.1303 199.968 38.9213 199.253 38.505C198.54 38.0869 197.974 37.5085 197.56 36.768C197.144 36.0275 196.937 35.1774 196.937 34.2181C196.937 33.2587 197.145 32.3717 197.56 31.6311C197.974 30.8905 198.544 30.3102 199.263 29.8921C199.984 29.474 200.795 29.2668 201.702 29.2668C202.609 29.2668 203.416 29.4759 204.123 29.8921C204.831 30.3102 205.391 30.8866 205.806 31.6214C206.222 32.356 206.429 33.2157 206.429 34.2005C206.429 35.1853 206.221 36.0294 205.806 36.7699C205.389 37.5105 204.825 38.0908 204.113 38.507C203.398 38.9251 202.588 39.1323 201.684 39.1323M201.684 36.9439C202.081 36.9439 202.442 36.8403 202.772 36.6351C203.1 36.43 203.367 36.1212 203.571 35.7109C203.775 35.3007 203.878 34.7945 203.878 34.1966C203.878 33.5988 203.779 33.0789 203.581 32.6745C203.382 32.2701 203.122 31.9652 202.799 31.7582C202.475 31.553 202.115 31.4494 201.718 31.4494C201.321 31.4494 200.936 31.553 200.601 31.7582C200.266 31.9633 199.999 32.2681 199.8 32.6745C199.602 33.0789 199.503 33.5871 199.503 34.1966C199.503 34.8062 199.598 35.2987 199.792 35.7109C199.984 36.1212 200.247 36.43 200.581 36.6351C200.916 36.8403 201.282 36.9439 201.679 36.9439" fill="#0D45FF"/>
<path d="M210.805 25.4506H208.291V38.9055H210.805V25.4506Z" fill="#0D45FF"/>
<path d="M217.409 39.1303C216.504 39.1303 215.694 38.9212 214.979 38.505C214.265 38.0887 213.7 37.5085 213.286 36.768C212.869 36.0274 212.663 35.1774 212.663 34.218C212.663 33.2587 212.871 32.3716 213.286 31.631C213.703 30.8905 214.268 30.3102 214.989 29.8921C215.71 29.4738 216.521 29.2668 217.428 29.2668C218.335 29.2668 219.142 29.4758 219.848 29.8921C220.555 30.3102 221.117 30.8866 221.531 31.6212C221.948 32.3559 222.154 33.2157 222.154 34.2005C222.154 35.1852 221.947 36.0294 221.531 36.7699C221.115 37.5104 220.551 38.0907 219.839 38.507C219.124 38.9251 218.314 39.1323 217.409 39.1323M217.409 36.9437C217.807 36.9437 218.17 36.8402 218.498 36.6351C218.825 36.43 219.092 36.1212 219.297 35.7109C219.501 35.3005 219.604 34.7945 219.604 34.1965C219.604 33.5986 219.505 33.0789 219.307 32.6744C219.108 32.27 218.848 31.9652 218.524 31.758C218.201 31.5528 217.84 31.4493 217.443 31.4493C217.046 31.4493 216.662 31.5528 216.327 31.758C215.992 31.9632 215.725 32.268 215.526 32.6744C215.328 33.0789 215.229 33.5869 215.229 34.1965C215.229 34.8062 215.324 35.2985 215.517 35.7109C215.71 36.1212 215.972 36.43 216.307 36.6351C216.642 36.8402 217.008 36.9437 217.405 36.9437M215.472 28.6845L215.248 27.0216L219.324 24.6672L219.603 26.5918L215.469 28.6845H215.472Z" fill="#0D45FF"/>
<path d="M227.462 43.2415C226.569 43.2415 225.786 43.132 225.116 42.9153C224.446 42.6964 223.928 42.3662 223.562 41.9246C223.196 41.483 223.012 40.9378 223.012 40.2891C223.012 39.8416 223.124 39.4235 223.347 39.0366C223.572 38.6497 223.9 38.298 224.335 37.9815C224.769 37.663 225.301 37.3934 225.934 37.1687L226.884 38.4211C226.314 38.6087 225.903 38.8451 225.656 39.1304C225.407 39.4157 225.284 39.7146 225.284 40.0273C225.284 40.3126 225.378 40.5568 225.563 40.7561C225.749 40.9554 226.011 41.1019 226.346 41.1957C226.68 41.2896 227.046 41.3365 227.444 41.3365C227.841 41.3365 228.188 41.2856 228.485 41.186C228.782 41.0864 229.016 40.9436 229.183 40.7561C229.351 40.5685 229.434 40.338 229.434 40.0644C229.434 39.7147 229.313 39.4392 229.073 39.234C228.831 39.0288 228.356 38.8998 227.647 38.8511C227.027 38.8022 226.467 38.726 225.971 38.6263C225.475 38.5266 225.043 38.4153 224.677 38.2902C224.311 38.1652 223.997 38.0226 223.737 37.8604C223.476 37.6982 223.265 37.5359 223.104 37.3739V36.944L225.095 34.7946L226.902 35.373L224.557 37.6904L225.282 36.4379C225.407 36.5258 225.537 36.6059 225.673 36.6802C225.81 36.7544 225.977 36.817 226.176 36.8677C226.374 36.9186 226.631 36.9655 226.949 37.0085C227.265 37.0514 227.671 37.0983 228.167 37.1492C228.998 37.2117 229.678 37.3621 230.205 37.5985C230.733 37.8349 231.116 38.1534 231.359 38.5521C231.601 38.9507 231.721 39.4372 231.721 40.0098C231.721 40.5822 231.57 41.0941 231.266 41.5787C230.962 42.0652 230.497 42.4638 229.87 42.7745C229.244 43.0852 228.44 43.2415 227.459 43.2415M227.48 36.1213C226.697 36.1213 226.022 35.9689 225.45 35.6641C224.877 35.3593 224.441 34.9489 224.137 34.4312C223.835 33.9135 223.682 33.3389 223.682 32.7019C223.682 32.0649 223.835 31.4905 224.137 30.9728C224.441 30.4569 224.876 30.0427 225.44 29.73C226.005 29.4194 226.683 29.263 227.477 29.263C228.272 29.263 228.931 29.4194 229.498 29.73C230.063 30.0407 230.493 30.4549 230.792 30.9728C231.091 31.4905 231.239 32.0669 231.239 32.7019C231.239 33.3369 231.091 33.9135 230.792 34.4312C230.496 34.9489 230.063 35.3593 229.498 35.6641C228.934 35.9689 228.26 36.1213 227.477 36.1213M227.48 34.1968C227.965 34.1968 228.352 34.0717 228.645 33.8236C228.936 33.5753 229.081 33.2002 229.081 32.7019C229.081 32.2037 228.936 31.8482 228.645 31.5999C228.352 31.3498 227.965 31.2267 227.48 31.2267C226.996 31.2267 226.601 31.3518 226.299 31.5999C225.995 31.85 225.843 32.2174 225.843 32.7019C225.843 33.1866 225.992 33.5735 226.29 33.8236C226.589 34.0736 226.986 34.1968 227.482 34.1968M229.026 31.2639L228.616 29.4897H232.488V30.9845L229.026 31.2639Z" fill="#0D45FF"/>
<path d="M235.542 28.1981C235.082 28.1981 234.711 28.0653 234.425 27.7957C234.138 27.5279 233.997 27.1879 233.997 26.7777C233.997 26.3674 234.138 26.0274 234.425 25.7596C234.709 25.492 235.082 25.3572 235.542 25.3572C236.002 25.3572 236.377 25.492 236.669 25.7596C236.962 26.0274 237.107 26.3674 237.107 26.7777C237.107 27.1879 236.962 27.5279 236.669 27.7957C236.377 28.0633 236.002 28.1981 235.542 28.1981ZM234.277 29.4878H236.789V38.9058H234.277V29.4878Z" fill="#0D45FF"/>
<path d="M243.566 39.1301C242.622 39.1301 241.784 38.9192 241.052 38.4951C240.322 38.0712 239.75 37.4928 239.34 36.7581C238.931 36.0234 238.727 35.1892 238.727 34.2532C238.727 33.2567 238.931 32.3871 239.34 31.6467C239.75 30.9061 240.322 30.3238 241.052 29.8999C241.784 29.4758 242.622 29.2647 243.566 29.2647C244.769 29.2647 245.782 29.5794 246.601 30.2085C247.421 30.8377 247.942 31.7071 248.164 32.8151H245.501C245.39 32.3911 245.16 32.0531 244.813 31.797C244.464 31.5411 244.042 31.4141 243.546 31.4141C243.113 31.4141 242.725 31.5254 242.382 31.7502C242.042 31.9749 241.776 32.2914 241.582 32.7038C241.39 33.114 241.294 33.6122 241.294 34.1985C241.294 34.6224 241.351 35.0074 241.462 35.3572C241.572 35.7069 241.729 35.998 241.927 36.2344C242.126 36.4709 242.361 36.6545 242.634 36.7855C242.906 36.9163 243.212 36.9809 243.546 36.9809C243.881 36.9809 244.164 36.9242 244.431 36.8129C244.697 36.7014 244.923 36.5393 245.109 36.3262C245.297 36.1153 245.427 35.8652 245.501 35.5779H248.164C247.94 36.6487 247.417 37.5084 246.592 38.1571C245.766 38.8058 244.757 39.1283 243.566 39.1283" fill="#0D45FF"/>
<path d="M253.188 39.1303C252.419 39.1303 251.779 39.0032 251.27 38.7473C250.763 38.4913 250.381 38.1495 250.126 37.7195C249.871 37.2897 249.744 36.8129 249.744 36.2892C249.744 35.7031 249.891 35.1931 250.182 34.7573C250.475 34.3217 250.918 33.9817 251.513 33.7394C252.11 33.497 252.867 33.3759 253.785 33.3759H256.075C256.075 32.9031 256.017 32.5162 255.898 32.2172C255.779 31.9184 255.588 31.6936 255.321 31.5451C255.054 31.3947 254.704 31.3204 254.27 31.3204C253.8 31.3204 253.398 31.42 253.069 31.6194C252.74 31.8186 252.538 32.1371 252.464 32.5729H250.025C250.087 31.887 250.307 31.3029 250.687 30.8164C251.064 30.3298 251.568 29.9507 252.196 29.6772C252.822 29.4036 253.518 29.2668 254.29 29.2668C255.172 29.2668 255.936 29.4133 256.589 29.7064C257.24 29.9996 257.736 30.4295 258.078 30.9961C258.419 31.5627 258.59 32.2505 258.59 33.0614V38.9096H256.486L256.207 37.4714C256.07 37.7215 255.905 37.9443 255.714 38.1436C255.522 38.3429 255.297 38.5167 255.044 38.6672C254.79 38.8157 254.516 38.931 254.215 39.0131C253.918 39.0931 253.578 39.1342 253.192 39.1342M253.802 37.1861C254.112 37.1861 254.394 37.1276 254.65 37.0083C254.905 36.8892 255.125 36.725 255.312 36.514C255.498 36.3029 255.646 36.0645 255.757 35.8047C255.868 35.5428 255.945 35.2576 255.981 34.945V34.9255H254.064C253.667 34.9255 253.347 34.9724 253.106 35.0661C252.864 35.1599 252.687 35.2927 252.577 35.4687C252.466 35.6425 252.409 35.8418 252.409 36.0665C252.409 36.3029 252.466 36.5061 252.577 36.6743C252.687 36.8423 252.853 36.9693 253.069 37.0572C253.285 37.1451 253.533 37.1881 253.805 37.1881" fill="#0D45FF"/>
<path d="M159.162 59.1054C158.306 59.1054 157.539 58.8944 156.863 58.4703C156.187 58.0464 155.657 57.4621 155.271 56.7138C154.887 55.9654 154.696 55.1252 154.696 54.1912C154.696 53.2572 154.888 52.3819 155.271 51.6414C155.657 50.9008 156.196 50.3147 156.89 49.8848C157.585 49.4548 158.363 49.2399 159.218 49.2399C159.9 49.2399 160.492 49.365 160.994 49.6132C161.497 49.8632 161.904 50.2169 162.215 50.6781V45.4278H164.728V58.8827H162.493L162.215 57.5735C162.017 57.8607 161.777 58.1186 161.498 58.3492C161.22 58.5798 160.891 58.7634 160.512 58.9002C160.133 59.037 159.682 59.1054 159.162 59.1054ZM159.759 56.8994C160.266 56.8994 160.708 56.7841 161.08 56.5535C161.452 56.3229 161.744 56.0026 161.955 55.5922C162.164 55.1819 162.271 54.7012 162.271 54.154C162.271 53.6071 162.167 53.1439 161.955 52.7337C161.744 52.3233 161.447 52.0048 161.07 51.7801C160.693 51.5553 160.249 51.444 159.739 51.444C159.267 51.444 158.842 51.5593 158.464 51.7899C158.084 52.0203 157.79 52.3408 157.58 52.7512C157.369 53.1635 157.263 53.6285 157.263 54.1522C157.263 54.6759 157.368 55.176 157.58 55.5825C157.79 55.9869 158.086 56.3074 158.464 56.5438C158.842 56.7802 159.274 56.8994 159.759 56.8994Z" fill="#0D45FF"/>
<path d="M171.392 59.1055C170.448 59.1055 169.615 58.9003 168.888 58.4881C168.164 58.0778 167.598 57.5072 167.196 56.7783C166.793 56.0496 166.591 55.2113 166.591 54.2657C166.591 53.3199 166.793 52.4153 167.196 51.6688C167.598 50.9204 168.161 50.3303 168.88 49.8927C169.599 49.4569 170.437 49.2382 171.392 49.2382C172.348 49.2382 173.136 49.4434 173.831 49.8556C174.526 50.2659 175.065 50.8169 175.451 51.5087C175.836 52.2004 176.029 52.9937 176.029 53.8905C176.029 54.0156 176.026 54.1562 176.019 54.3106C176.013 54.4669 176.003 54.6251 175.992 54.7874H168.397V53.2358H173.496C173.46 52.6497 173.245 52.1769 172.855 51.8155C172.463 51.4539 171.982 51.2741 171.412 51.2741C170.978 51.2741 170.583 51.3777 170.231 51.5829C169.878 51.788 169.594 52.087 169.383 52.4797C169.171 52.8724 169.066 53.3668 169.066 53.9647V54.5059C169.066 55.016 169.161 55.4614 169.355 55.8425C169.547 56.2234 169.815 56.5185 170.164 56.7296C170.511 56.9406 170.915 57.0461 171.375 57.0461C171.835 57.0461 172.227 56.9503 172.52 56.7569C172.811 56.5634 173.037 56.3055 173.198 55.9812H175.749C175.588 56.5674 175.299 57.0988 174.883 57.5795C174.466 58.0583 173.964 58.4333 173.373 58.7011C172.784 58.9687 172.124 59.1035 171.392 59.1035" fill="#0D45FF"/>
<path d="M181.929 58.8808V45.8011H187.271C188.177 45.8011 188.941 45.9437 189.56 46.231C190.182 46.5182 190.648 46.9129 190.966 47.4169C191.282 47.9211 191.441 48.5034 191.441 49.1639C191.441 49.8242 191.301 50.3792 191.022 50.8266C190.744 51.2761 190.368 51.6199 189.895 51.8642C189.424 52.1064 188.914 52.2471 188.369 52.2843L188.647 52.0791C189.243 52.1046 189.775 52.2628 190.24 52.5559C190.704 52.849 191.07 53.2378 191.337 53.7243C191.605 54.2108 191.739 54.7403 191.739 55.3129C191.739 56.0104 191.575 56.6279 191.246 57.1633C190.916 57.6987 190.432 58.1188 189.793 58.4255C189.156 58.7303 188.377 58.8826 187.457 58.8826H181.929V58.8808ZM184.442 51.2565H186.862C187.519 51.2565 188.022 51.106 188.37 50.8071C188.718 50.5081 188.893 50.0842 188.893 49.5371C188.893 48.9899 188.719 48.5816 188.37 48.2768C188.022 47.972 187.514 47.8195 186.844 47.8195H184.442V51.2584V51.2565ZM184.442 56.8253H187.066C187.736 56.8253 188.257 56.6688 188.63 56.3582C189.002 56.0475 189.188 55.5982 189.188 55.0119C189.188 54.4258 188.996 53.9685 188.61 53.6383C188.225 53.3081 187.699 53.144 187.028 53.144H184.44V56.8253H184.442Z" fill="#0D45FF"/>
<path d="M197.902 59.1054C196.997 59.1054 196.187 58.8964 195.473 58.4802C194.758 58.062 194.195 57.4836 193.779 56.7432C193.362 56.0026 193.156 55.1526 193.156 54.1932C193.156 53.2339 193.365 52.3468 193.779 51.6042C194.195 50.8638 194.763 50.2834 195.483 49.8672C196.203 49.449 197.015 49.2419 197.922 49.2419C198.829 49.2419 199.635 49.451 200.341 49.8672C201.049 50.2854 201.61 50.8618 202.026 51.5964C202.441 52.3311 202.647 53.1909 202.647 54.1757C202.647 55.1604 202.44 56.0046 202.026 56.745C201.609 57.4856 201.044 58.0659 200.331 58.4821C199.616 58.9003 198.807 59.1073 197.902 59.1073M197.902 56.919C198.299 56.919 198.661 56.8154 198.99 56.6102C199.32 56.405 199.585 56.0964 199.79 55.6861C199.995 55.2757 200.098 54.7696 200.098 54.1717C200.098 53.5738 199.998 53.0541 199.8 52.6496C199.601 52.2452 199.341 51.9404 199.017 51.7332C198.694 51.528 198.335 51.4245 197.938 51.4245C197.541 51.4245 197.155 51.528 196.82 51.7332C196.485 51.9384 196.218 52.2452 196.02 52.6496C195.821 53.0541 195.722 53.5621 195.722 54.1717C195.722 54.7813 195.817 55.2737 196.01 55.6861C196.203 56.0964 196.465 56.405 196.8 56.6102C197.135 56.8154 197.501 56.919 197.898 56.919" fill="#0D45FF"/>
<path d="M207.024 45.4258H204.51V58.8805H207.024V45.4258Z" fill="#0D45FF"/>
<path d="M208.493 48.6596L208.27 46.9968L212.345 44.6423L212.626 46.567L208.493 48.6596ZM209.183 49.4627H211.695V58.8807H209.183V49.4627Z" fill="#0D45FF"/>
<path d="M216.367 58.8807L212.923 49.4627H215.565L217.911 56.5066L220.237 49.4627H222.844L219.42 58.8807H216.367Z" fill="#0D45FF"/>
<path d="M226.682 59.1054C225.913 59.1054 225.273 58.9785 224.764 58.7224C224.257 58.4665 223.876 58.1246 223.62 57.6947C223.365 57.2649 223.238 56.7881 223.238 56.2644C223.238 55.6782 223.385 55.1682 223.676 54.7325C223.969 54.2968 224.413 53.9568 225.009 53.7145C225.604 53.4723 226.361 53.351 227.28 53.351H229.569C229.569 52.8782 229.511 52.4913 229.392 52.1925C229.273 51.8935 229.083 51.6688 228.816 51.5203C228.549 51.3698 228.198 51.2956 227.764 51.2956C227.294 51.2956 226.892 51.3952 226.563 51.5945C226.234 51.7938 226.032 52.1123 225.958 52.548H223.519C223.582 51.8622 223.802 51.2779 224.181 50.7914C224.558 50.3049 225.063 49.9258 225.69 49.6522C226.316 49.3787 227.013 49.2419 227.784 49.2419C228.666 49.2419 229.43 49.3886 230.083 49.6816C230.734 49.9747 231.232 50.4045 231.572 50.9712C231.913 51.5378 232.084 52.2257 232.084 53.0365V58.8846H229.98L229.7 57.4466C229.563 57.6967 229.398 57.9194 229.207 58.1186C229.015 58.318 228.79 58.492 228.537 58.6423C228.283 58.7908 228.007 58.9061 227.708 58.9882C227.411 59.0683 227.069 59.1093 226.685 59.1093M227.298 57.1613C227.607 57.1613 227.889 57.1026 228.144 56.9834C228.399 56.8643 228.619 56.7001 228.806 56.4891C228.992 56.2781 229.141 56.0398 229.252 55.7798C229.362 55.5181 229.439 55.2328 229.475 54.9201V54.9006H227.558C227.161 54.9006 226.842 54.9475 226.6 55.0413C226.36 55.135 226.182 55.2679 226.071 55.4437C225.96 55.6177 225.903 55.8169 225.903 56.0416C225.903 56.2781 225.96 56.4813 226.071 56.6493C226.182 56.8174 226.347 56.9444 226.563 57.0323C226.779 57.1202 227.027 57.1633 227.299 57.1633" fill="#0D45FF"/>
<path d="M234.129 58.8805V49.4626H236.364L236.587 51.1821C236.823 50.7835 237.112 50.4376 237.454 50.1445C237.794 49.8515 238.186 49.6268 238.628 49.4723C239.067 49.3161 239.556 49.2399 240.09 49.2399V51.9108H239.233C238.861 51.9108 238.516 51.952 238.2 52.0321C237.885 52.1142 237.606 52.2567 237.37 52.4619C237.134 52.6671 236.953 52.9347 236.83 53.265C236.706 53.5952 236.644 54.0153 236.644 54.5272V58.8805H234.131H234.129Z" fill="#0D45FF"/>
<path d="M127.525 32.2095C127.418 32.227 127.418 32.3775 127.525 32.3952C131 32.9539 133.661 35.9826 133.661 39.6345V59.1523C133.661 61.8585 131.48 64.0372 128.794 64.0372H85.7227V35.4921H113.675V29.2082H79.3554V64.0372H54.4863V29.2082H47.9146V59.1523C47.9146 61.8507 45.7364 64.0372 43.0482 64.0372H4.86641C2.18014 64.0372 0 61.8565 0 59.1523V5.33505C0 2.63861 2.18014 0.450203 4.86641 0.450203H20.7017V43.0891H27.2753V0.450203H128.792C131.48 0.450203 133.659 2.63861 133.659 5.33505V24.976C133.659 28.628 131 31.6506 127.523 32.2075" fill="#0D45FF"/>
</svg>
